# xmcd
# 
# Track frame offsets:
#     150
#     18160
#     38057
#     54037
#     71228
#     89574
#     107651
#     127521
#     145428
#     162355
#     181967
# 
# Disc length: 2633
# 
# Revision: 0
# Processed by: cddbd v1.5.2PL0 Copyright (c) Steve Scherf et al.
# Submitted via: fre:ac v1.1beta1pre4
# 
DISCID=8a0a470b
DTITLE=ERASURE - Live @ Short Curcuit, Roundhouse, London, May 14, 2011
DYEAR=0
DGENRE=
TTITLE0=HIDEAWAY
TTITLE1=FINGERS AND THUMBS
TTITLE2=HEAVENLY ACTION
TTITLE3=ALWAYS
TTITLE4=SHIP OF FOOLS
TTITLE5=VICTIM OF LOVE
TTITLE6=BREATHE
TTITLE7=CHAINS OF LOVE
TTITLE8=SOMETIMES
TTITLE9=BLUE SAVANNAH
TTITLE10=A LITTLE RESPECT
EXTD=
EXTT0=
EXTT1=
EXTT2=
EXTT3=
EXTT4=
EXTT5=
EXTT6=
EXTT7=
EXTT8=
EXTT9=
EXTT10=
PLAYORDER=
